<svg xmlns="http://www.w3.org/2000/svg" viewBox="0 0 128 128" fill="none">
  <defs>
    <linearGradient id="ring" x1="18" y1="104" x2="112" y2="18" gradientUnits="userSpaceOnUse">
      <stop stop-color="#FF174D"/>
      <stop offset="0.48" stop-color="#EC2D7C"/>
      <stop offset="1" stop-color="#7C3AED"/>
    </linearGradient>
    <linearGradient id="v" x1="28" y1="30" x2="92" y2="104" gradientUnits="userSpaceOnUse">
      <stop stop-color="#FF174D"/>
      <stop offset="0.5" stop-color="#EC2D7C"/>
      <stop offset="1" stop-color="#7C3AED"/>
    </linearGradient>
    <linearGradient id="play" x1="72" y1="49" x2="102" y2="77" gradientUnits="userSpaceOnUse">
      <stop stop-color="#FF416C"/>
      <stop offset="1" stop-color="#B54BFF"/>
    </linearGradient>
    <filter id="glow" x="-35%" y="-35%" width="170%" height="170%">
      <feGaussianBlur stdDeviation="4" result="b"/>
      <feColorMatrix in="b" values="1 0 0 0 0.95 0 1 0 0 0.1 0 0 1 0 0.4 0 0 0 .34 0" result="c"/>
      <feMerge><feMergeNode in="c"/><feMergeNode in="SourceGraphic"/></feMerge>
    </filter>
  </defs>
  <path d="M105.5 39.5A49.5 49.5 0 1 1 23 31" stroke="#0D1020" stroke-width="11" stroke-linecap="round"/>
  <path d="M105.5 39.5A49.5 49.5 0 1 1 23 31" stroke="url(#ring)" stroke-width="5.5" stroke-linecap="round" filter="url(#glow)"/>
  <path d="M17 24.5 29.5 32 18.4 40.8c.2-5.8-.2-10.8-1.4-16.3Z" fill="#FF174D"/>
  <path d="M105.5 39.5 112 28" stroke="#7C3AED" stroke-width="4.5" stroke-linecap="round"/>
  <circle cx="112.5" cy="27" r="5.4" fill="#C13BDE" stroke="#F27CEC" stroke-width="1.8"/>
  <path d="M31 30h18.5l14.1 34.2L78.2 30H97L66.6 101.2c-1.3 3-5.6 3.1-7 0L31 30Z" fill="url(#v)" filter="url(#glow)"/>
  <path d="M72.5 48.5 101 66.8c2.7 1.8 2.7 5.8 0 7.6L72.5 92.8c-3 1.9-6.8-.2-6.8-3.8V52.3c0-3.6 3.8-5.8 6.8-3.8Z" fill="url(#play)" stroke="#FF6C93" stroke-width="1.2"/>
  <path d="M70.5 54.2 94.5 69.7 70.5 85.2V54.2Z" fill="#0A0C15" opacity=".35"/>
</svg>
